<svg xmlns="http://www.w3.org/2000/svg" xmlns:xlink="http://www.w3.org/1999/xlink" width="118" height="65" viewBox="0 0 118 65">
  <defs>
    <linearGradient id="linear-gradient" x1="0.13" x2="0.865" y2="1.278" gradientUnits="objectBoundingBox">
      <stop offset="0" stop-color="#68dea4"/>
      <stop offset="1" stop-color="#843d95"/>
    </linearGradient>
  </defs>
  <g id="Group_16" data-name="Group 16" transform="translate(0)">
    <g id="Group_14" data-name="Group 14" transform="translate(0)">
      <g id="Group_13" data-name="Group 13" transform="translate(1 4)" opacity="0.17">
        <rect id="Rectangle_27" data-name="Rectangle 27" width="105" height="19" rx="9.5" transform="translate(0 14)" fill="url(#linear-gradient)"/>
        <rect id="Rectangle_28" data-name="Rectangle 28" width="88" height="18" rx="9" transform="translate(9 32)" fill="url(#linear-gradient)"/>
        <rect id="Rectangle_29" data-name="Rectangle 29" width="69" height="20" rx="10" transform="translate(9 0)" fill="url(#linear-gradient)"/>
      </g>
      <circle id="Ellipse_21" data-name="Ellipse 21" cx="3.5" cy="3.5" r="3.5" transform="translate(40 0)" fill="#00e2c3"/>
      <circle id="Ellipse_22" data-name="Ellipse 22" cx="3.5" cy="3.5" r="3.5" transform="translate(0 50)" fill="#000ceb"/>
      <circle id="Ellipse_24" data-name="Ellipse 24" cx="3.5" cy="3.5" r="3.5" transform="translate(111 13)" fill="#000ceb"/>
      <circle id="Ellipse_19" data-name="Ellipse 19" cx="2.5" cy="2.5" r="2.5" transform="translate(32 47)" fill="#00e2c3"/>
      <circle id="Ellipse_18" data-name="Ellipse 18" cx="2.5" cy="2.5" r="2.5" transform="translate(19 25)" fill="#ff6e4d"/>
      <circle id="Ellipse_20" data-name="Ellipse 20" cx="3" cy="3" r="3" transform="translate(71 59)" fill="#00e2c3"/>
      <path id="Polygon_6" data-name="Polygon 6" d="M5.051,0,10.1,9.092H0Z" transform="translate(68.28 16.398) rotate(30)" fill="#ff6e4d"/>
      <path id="Polygon_7" data-name="Polygon 7" d="M3.536,0,7.072,6.062H0Z" transform="translate(14.313 9.727) rotate(-90)" fill="#00e2c3"/>
      <path id="Polygon_8" data-name="Polygon 8" d="M3.536,0,7.072,6.062H0Z" transform="translate(106.246 35.994) rotate(90)" fill="#000ceb"/>
      <path id="Polygon_9" data-name="Polygon 9" d="M3.536,0,7.072,6.062H0Z" transform="translate(53.713 51.148) rotate(90)" fill="#ff6e4d"/>
    </g>
    <g id="Layer_2" data-name="Layer 2" transform="translate(33 7)">
      <g id="Layer_1" data-name="Layer 1" transform="translate(0 0)">
        <rect id="Rectangle_30" data-name="Rectangle 30" width="50" height="51" transform="translate(0 0)" fill="none"/>
        <path id="Path_37" data-name="Path 37" d="M49.874,41.472c-1.253-.222-3.8-.909-4.041-1.01a13.649,13.649,0,0,1-7.446-4.455,22.942,22.942,0,0,1-2.546-4.1c-1.384-2.748-2.475-5.657-4.243-8.163s-4.4-4.637-7.466-4.829a23.751,23.751,0,0,0-4.3.384,11.113,11.113,0,0,1-5.688-.687A10.476,10.476,0,0,1,9.616,14.3a18.1,18.1,0,0,1-1.323-2.748c-.212-.525-.4-1.091-.576-1.647-.061-.212-.131-.737-.232-1.162a7.072,7.072,0,0,1-5.415,2.546A7.648,7.648,0,0,1,.19,11.023c.081.182.162.343.172.384.273.667.546,1.334.849,2.021a41.038,41.038,0,0,0,2.021,3.91,17.417,17.417,0,0,0,5.92,6.213h.071a17.781,17.781,0,0,0,8.456,2.1c2.93.081,5.859-.263,8.789-.465a2.738,2.738,0,0,1,1.687.263,2.718,2.718,0,0,1,.818,1.071c2.263,4.334,4.041,9.153,8.143,12.123,3.647,2.6,8.082,3.677,12.5,4.374a.778.778,0,0,0,.9-.677h0a.768.768,0,0,0-.636-.869Z" transform="translate(0.004 0.291)" fill="#000ceb"/>
        <path id="Path_38" data-name="Path 38" d="M7.264,8.189h0S3.708,5.158,0,10.492a6.6,6.6,0,0,0,7.264-2.3Z" transform="translate(0.002 0.277)" fill="#000ceb"/>
      </g>
    </g>
  </g>
</svg>
