<svg width="87" height="15" viewBox="0 0 87 15" fill="none" xmlns="http://www.w3.org/2000/svg">
<path d="M87 11.4224H84.7246C84.7246 8.72775 82.5252 6.53544 79.8218 6.53544C77.1184 6.53544 74.919 8.72775 74.919 11.4224H72.6436C72.6436 9.51123 73.3903 7.71442 74.746 6.36301C76.1018 5.01158 77.9044 4.26732 79.8218 4.26732C81.7392 4.26732 83.5418 5.01158 84.8976 6.36301C86.2533 7.71442 87 9.51123 87 11.4224Z" fill="#008BFF"/>
<path d="M57.7467 0.689753V2.95788C55.0434 2.95788 52.844 5.15017 52.844 7.84488C52.844 10.5396 55.0434 12.7319 57.7467 12.7319V15C55.8294 15 54.0268 14.2557 52.671 12.9043C51.3152 11.5529 50.5686 9.75608 50.5686 7.84488C50.5686 5.93368 51.3152 4.13686 52.671 2.78543C54.0268 1.43403 55.8294 0.689753 57.7467 0.689753Z" fill="#008BFF"/>
<path d="M0 4.47545H1.54452C1.9576 4.47545 2.19107 4.24273 2.19107 3.84889V3.16862C2.19107 2.16611 2.90944 1.21733 4.22049 1.21733H6.08827V2.75688H4.77722C4.38211 2.75688 4.09477 2.918 4.09477 3.41925V3.84889C4.09477 4.24273 4.32824 4.47545 4.74132 4.47545H6.84257V5.9792H4.74132C4.32824 5.9792 4.09477 6.19402 4.09477 6.60575V13.4263H2.19107V6.60575C2.19107 6.19402 1.9576 5.9792 1.54452 5.9792H0V4.47545Z" fill="white"/>
<path d="M7.77636 0H9.68008V13.4263H7.77636V0Z" fill="white"/>
<path d="M10.955 4.47545H12.8767V10.1324C12.8767 11.3676 13.4155 12.0837 14.3314 12.0837C15.6425 12.0837 16.5763 10.6515 16.5763 9.45215V4.47545H18.4801V13.4263H16.5763V12.8535C16.5763 12.6924 16.4865 12.6208 16.3788 12.6208C15.9477 12.6208 15.4449 13.6411 13.8465 13.6411C12.0865 13.6411 10.955 12.4059 10.955 10.3293V4.47545Z" fill="white"/>
<path d="M19.4499 4.47545H20.6712C21.2458 4.47545 21.4973 4.15323 21.4973 3.58037V2.50625L23.401 0.859296V3.58037C23.401 4.15323 23.6524 4.47545 24.2271 4.47545H25.8794V6.01501H24.2271C23.6524 6.01501 23.401 6.33723 23.401 6.91009V10.7948C23.401 11.5466 23.6884 11.8868 24.3708 11.8868H26.5618V13.4263H24.3528C22.5748 13.4263 21.4973 12.4596 21.4973 10.7411V6.91009C21.4973 6.33723 21.2458 6.01501 20.6712 6.01501H19.4499V4.47545Z" fill="white"/>
<path d="M25.8794 4.47545H27.1006C27.6753 4.47545 27.9268 4.15323 27.9268 3.58037V2.50625L29.8304 0.859296V3.58037C29.8304 4.15323 30.0819 4.47545 30.6566 4.47545H32.3088V6.01501H30.6566C30.0819 6.01501 29.8304 6.33723 29.8304 6.91009V10.7948C29.8304 11.5466 30.1178 11.8868 30.8002 11.8868H32.9913V13.4263H30.7823C29.0043 13.4263 27.9268 12.4596 27.9268 10.7411V6.91009C27.9268 6.33723 27.6753 6.01501 27.1006 6.01501H25.8794V4.47545Z" fill="white"/>
<path d="M37.2854 4.29644C39.7459 4.29644 41.452 6.05081 41.452 8.53915C41.452 8.78978 41.4341 9.0046 41.4161 9.21943H35.292C34.9687 9.21943 34.807 9.36264 34.807 9.81018C34.807 10.8485 35.705 12.1553 37.3034 12.1553C38.3271 12.1553 39.2071 11.6183 39.5663 10.7232H41.488C40.9851 12.4059 39.4586 13.6411 37.3034 13.6411C34.5915 13.6411 32.8674 11.6183 32.8674 8.9151C32.8674 6.0866 34.7711 4.29644 37.2854 4.29644ZM35.274 7.82308H39.1173C39.4226 7.82308 39.5484 7.66196 39.5484 7.44714C39.5484 6.83847 38.812 5.78229 37.2316 5.78229C35.6332 5.78229 34.843 6.85639 34.843 7.44714C34.843 7.67987 34.9866 7.82308 35.274 7.82308Z" fill="white"/>
<path d="M42.6785 4.47545H44.6002V4.94089C44.6002 5.15571 44.69 5.26313 44.8337 5.26313C45.2288 5.26313 45.5521 4.29644 46.8811 4.29644C48.264 4.29644 49.0542 5.31683 48.8207 7.41135L48.7668 7.93048H46.917V6.74896C46.917 6.0866 46.6117 5.76437 46.1627 5.76437C45.3366 5.76437 44.5822 6.78477 44.5822 8.55706V13.4263H42.6785V4.47545Z" fill="white"/>
<path d="M70.0045 2.78543C68.6487 1.434 66.8461 0.689754 64.9287 0.689754C63.0113 0.689754 61.2087 1.43402 59.853 2.78543C58.4972 4.13686 57.7505 5.93368 57.7505 7.84487C57.7505 9.75607 58.4972 11.5529 59.853 12.9043C61.2087 14.2557 63.0113 15 64.9287 15C66.8461 15 68.6487 14.2557 70.0045 12.9043C71.3602 11.5529 72.1069 9.75607 72.1069 7.84488C72.1069 5.93368 71.3602 4.13686 70.0045 2.78543ZM64.9287 12.7319C62.2253 12.7319 60.026 10.5396 60.026 7.84487C60.026 5.15017 62.2253 2.95788 64.9287 2.95788C67.6321 2.95788 69.8315 5.15017 69.8315 7.84488C69.8315 10.5396 67.6321 12.7319 64.9287 12.7319Z" fill="#008BFF"/>
</svg>
