<svg xmlns="http://www.w3.org/2000/svg" width="18.311" height="16.797" viewBox="0 0 18.311 16.797">
  <path id="icons8-telegram-app" d="M19.9,3.984a2.073,2.073,0,0,0-.682.165c-.191.077-.919.389-2.065.881L12.865,6.872,4.112,10.638a2.142,2.142,0,0,0-.575.311A1.467,1.467,0,0,0,3,12.042a1.441,1.441,0,0,0,.407.977,1.944,1.944,0,0,0,.672.419l3.494,1.429c.154.471.991,3.031,1.185,3.658a2.685,2.685,0,0,0,.408.879,1.1,1.1,0,0,0,.283.264.9.9,0,0,0,.143.07h0c.011,0,.021.012.033.016a.519.519,0,0,0,.066.015,1.1,1.1,0,0,0,1.058-.185l.016-.012,2.3-1.986,2.785,2.634a1.459,1.459,0,0,0,1.211.557,1.533,1.533,0,0,0,1.1-.5,1.656,1.656,0,0,0,.46-.863v0c.06-.319,2.627-13.5,2.627-13.5l0,.018a2.048,2.048,0,0,0,.012-.977,1.333,1.333,0,0,0-.572-.779A1.371,1.371,0,0,0,19.9,3.984Zm-.143,1.594c0,.022,0,.011,0,.037l0,.009v.009s-2.535,13.007-2.628,13.5c.007-.037-.024.037-.057.082a1.086,1.086,0,0,0-.139-.071l-.015-.016-3.8-3.6L10.42,17.856l.8-3.2s5-5.178,5.3-5.479c.243-.241.293-.325.293-.408a.173.173,0,0,0-.188-.192.845.845,0,0,0-.358.167c-1.093.7-5.893,3.494-8.045,4.746L4.7,12.045l.01,0c1.867-.8,5.511-2.373,8.752-3.767l4.288-1.842C18.885,5.948,19.669,5.615,19.758,5.578Z" transform="translate(-3 -3.982)"/>
</svg>
