<svg id="Component_1" data-name="Component 1" xmlns="http://www.w3.org/2000/svg" width="17.779" height="17" viewBox="0 0 17.779 17">
  <rect id="Rectangle_548" data-name="Rectangle 548" width="17" height="17" fill="none"/>
  <path id="Path_2" data-name="Path 2" d="M43.567,16.258A10.163,10.163,0,0,0,53.821,6V5.516A7.938,7.938,0,0,0,55.579,3.66a8.107,8.107,0,0,1-2.051.586A3.8,3.8,0,0,0,55.09,2.293a8.957,8.957,0,0,1-2.246.879A3.488,3.488,0,0,0,50.207,2a3.669,3.669,0,0,0-3.613,3.613,1.9,1.9,0,0,0,.1.781A10.1,10.1,0,0,1,39.27,2.586a3.74,3.74,0,0,0-.488,1.856,3.88,3.88,0,0,0,1.563,3.027,3.292,3.292,0,0,1-1.66-.488h0a3.569,3.569,0,0,0,2.93,3.516,3.011,3.011,0,0,1-.977.1,1.662,1.662,0,0,1-.684-.1,3.7,3.7,0,0,0,3.418,2.539A7.373,7.373,0,0,1,38.879,14.6,2.7,2.7,0,0,1,38,14.5a9.218,9.218,0,0,0,5.567,1.758" transform="translate(-37.8 -0.612)" fill="#191d1d" fill-rule="evenodd"/>
</svg>
