<svg xmlns="http://www.w3.org/2000/svg" width="18.311" height="18.311" viewBox="0 0 18.311 18.311">
  <path id="icons8-whatsapp" d="M11.155,2A9.155,9.155,0,0,0,3.179,15.65L2.015,19.806a.4.4,0,0,0,.383.506.41.41,0,0,0,.1-.012l4.337-1.074A9.155,9.155,0,1,0,11.155,2Zm4.606,12.386a2.42,2.42,0,0,1-1.587,1.1,3.268,3.268,0,0,1-1.481-.092,13.775,13.775,0,0,1-1.34-.489,10.432,10.432,0,0,1-4.015-3.5A4.485,4.485,0,0,1,6.379,9,2.589,2.589,0,0,1,7.2,7.067a.869.869,0,0,1,.627-.291c.157,0,.313,0,.451.008s.338-.055.529.4.666,1.607.724,1.724a.424.424,0,0,1,.02.407,1.564,1.564,0,0,1-.235.387c-.118.136-.247.3-.353.407s-.24.241-.1.474a6.994,6.994,0,0,0,1.308,1.608,6.444,6.444,0,0,0,1.89,1.152c.235.116.372.1.509-.058s.588-.678.744-.91.313-.194.529-.116,1.371.638,1.606.755.392.174.451.271A1.914,1.914,0,0,1,15.761,14.386Z" transform="translate(-2 -2)"/>
</svg>
