<svg xmlns="http://www.w3.org/2000/svg" width="25.166" height="36.521" viewBox="0 0 25.166 36.521">
  <g id="Layer_2" data-name="Layer 2" transform="translate(0)">
    <g id="Layer_1" data-name="Layer 1">
      <path id="Path_52" data-name="Path 52" d="M44.885,62.1V61.49H44.28A.875.875,0,0,1,44.885,62.1Z" transform="translate(-22.144 -30.728)" fill="#21649c"/>
      <path id="Path_53" data-name="Path 53" d="M2.418,63.211a1.161,1.161,0,0,0-.9-.38,1.641,1.641,0,0,0,0,3.267,1.156,1.156,0,0,0,.921-.375.29.29,0,0,0,.29.29h.62v-3.1H2.418Zm-.735,2a.755.755,0,0,1,0-1.5.755.755,0,0,1,0,1.5Zm4.2-2.391a1.171,1.171,0,0,0-.926.38v-.055a.24.24,0,0,0-.235-.24h-.7v3.407a.931.931,0,0,0,.936.941V65.722a1.171,1.171,0,0,0,.926.375,1.641,1.641,0,0,0,0-3.267Zm-.185,2.391a.755.755,0,0,1,0-1.5.755.755,0,0,1,0,1.5Zm4.037-2.391a1.166,1.166,0,0,0-.921.38.3.3,0,0,0-.29-.3h-.64v3.447a.906.906,0,0,0,.9.9h.03V65.722a1.171,1.171,0,0,0,.926.375,1.641,1.641,0,0,0,0-3.267Zm-.185,2.391a.755.755,0,1,1,.74-.755.705.705,0,0,1-.74.755Zm3-1.4c0-.11.1-.175.26-.175a.43.43,0,0,1,.37.205.09.09,0,0,0,.115.03l.635-.34a.085.085,0,0,0,.035-.12h0a1.351,1.351,0,0,0-1.151-.58c-.645,0-1.216.34-1.216,1,0,1.071,1.5.891,1.5,1.231,0,.125-.11.2-.335.2a.5.5,0,0,1-.5-.28.09.09,0,0,0-.12-.04h0l-.4.23a.335.335,0,0,0-.125.46.225.225,0,0,0,.05.07,1.5,1.5,0,0,0,1.086.385c.67,0,1.291-.3,1.291-1,0-1.146-1.5-.911-1.5-1.266Zm3.847,1.3a.9.9,0,0,0,.9.89h.035V61.5h-.921ZM20.253,63.2a1.161,1.161,0,0,0-.921-.38,1.641,1.641,0,0,0,0,3.267,1.156,1.156,0,0,0,.921-.375v.08a.21.21,0,0,0,.21.21h.72V62.916h-.921Zm-.735,2a.755.755,0,1,1,.735-.755.705.705,0,0,1-.725.775Zm4.2-2.391a1.171,1.171,0,0,0-.926.38v-.6a.926.926,0,0,0-.926-.931h0v4.332h.926V65.7a1.171,1.171,0,0,0,.926.375,1.641,1.641,0,0,0,0-3.267Zm-.185,2.411a.755.755,0,1,1,.735-.755.705.705,0,0,1-.735.755Zm-8.385-2.411a.56.56,0,1,0,.555.56h0a.56.56,0,0,0-.555-.56Zm0,2.086a.56.56,0,1,0,.555.56h0a.56.56,0,0,0-.555-.56Z" transform="translate(-0.033 -30.733)" fill="#2fc0d1"/>
      <path id="Path_54" data-name="Path 54" d="M11.314,30.6l-9.22-9.215a2.7,2.7,0,0,1,0-3.812l9.22-9.215a2.692,2.692,0,0,1,3.812,0h0l9.215,9.215a2.7,2.7,0,0,1,0,3.812L15.126,30.6a2.692,2.692,0,0,1-3.812,0Z" transform="translate(-0.67 -3.782)" fill="#2fc0d1"/>
      <ellipse id="Ellipse_25" data-name="Ellipse 25" cx="2.541" cy="2.541" rx="2.541" ry="2.541" transform="translate(14.662)" fill="#8e74b4"/>
      <ellipse id="Ellipse_26" data-name="Ellipse 26" cx="1.621" cy="1.621" rx="1.621" ry="1.621" transform="translate(21.275 0.475)" fill="#faa31b"/>
      <ellipse id="Ellipse_27" data-name="Ellipse 27" cx="2.126" cy="2.126" rx="2.126" ry="2.126" transform="translate(18.919 4.753)" fill="#7bc254"/>
      <path id="Path_55" data-name="Path 55" d="M20.464,22.175l-4.753,4.753a1.126,1.126,0,0,1-1.586,0h0L9.348,22.16,4.69,26.813l5.578,5.563h0l3.862,3.862a1.126,1.126,0,0,0,1.586,0h0l9.405-9.41Z" transform="translate(-2.36 -11.074)" fill="#fff"/>
    </g>
  </g>
</svg>
