<svg xmlns="http://www.w3.org/2000/svg" xmlns:xlink="http://www.w3.org/1999/xlink" width="137" height="25.489" viewBox="0 0 137 25.489">
  <defs>
    <clipPath id="clip-path">
      <rect id="Rectangle_2" data-name="Rectangle 2" width="137" height="25.489" fill="none"/>
    </clipPath>
  </defs>
  <g id="Group_363" data-name="Group 363" transform="translate(-3 -3)">
    <g id="Group_1" data-name="Group 1" transform="translate(3 3)" clip-path="url(#clip-path)">
      <path id="Path_1" data-name="Path 1" d="M112.93,8.337a6.941,6.941,0,1,0,6.941,6.941,6.951,6.951,0,0,0-6.941-6.941m0,10.7a3.763,3.763,0,1,1,3.763-3.763,3.778,3.778,0,0,1-3.763,3.763" transform="translate(-29.517 -2.322)" fill="#0016e6"/>
      <path id="Path_2" data-name="Path 2" d="M41.572,8.337a6.956,6.956,0,1,0,6.941,6.941,6.951,6.951,0,0,0-6.941-6.941m0,10.7a3.763,3.763,0,1,1,3.763-3.763,3.778,3.778,0,0,1-3.763,3.763" transform="translate(-9.644 -2.322)" fill="#0016e6"/>
      <path id="Path_3" data-name="Path 3" d="M13.943,12.956V0H10.7V7.095A7.072,7.072,0,0,0,6.94,6.015a6.941,6.941,0,1,0,7,6.941M7,16.72a3.748,3.748,0,1,1,3.763-3.732A3.778,3.778,0,0,1,7,16.72" transform="translate(0 0)" fill="#0016e6"/>
      <path id="Path_4" data-name="Path 4" d="M79.23,0H75.99V7.095a7.067,7.067,0,0,0-3.763-1.079,6.941,6.941,0,1,0,6.941,6.941V0h.062M72.258,16.72a3.763,3.763,0,1,1,3.763-3.763,3.778,3.778,0,0,1-3.763,3.763" transform="translate(-18.182 0)" fill="#0016e6"/>
      <rect id="Rectangle_1" data-name="Rectangle 1" width="3.239" height="13.943" transform="translate(41.336 6.015)" fill="#0016e6"/>
      <path id="Path_5" data-name="Path 5" d="M22.788,15.266h0v6.941h3.239V15.266A3.778,3.778,0,0,1,29.79,11.5V8.294a7.011,7.011,0,0,0-7,6.972" transform="translate(-6.346 -2.31)" fill="#0016e6"/>
      <path id="Path_6" data-name="Path 6" d="M96.942,17.9a3.682,3.682,0,0,1-2.622,1.079,3.763,3.763,0,1,1,0-7.527,3.629,3.629,0,0,1,2.622,1.08l2.283-2.283a6.948,6.948,0,1,0-4.936,11.846,7.106,7.106,0,0,0,4.936-2.036Z" transform="translate(-24.326 -2.286)" fill="#0016e6"/>
      <path id="Path_7" data-name="Path 7" d="M135.376,8.337a6.951,6.951,0,0,0-6.941,6.941v6.941h3.239V15.278a3.764,3.764,0,0,1,7.527,0v6.941h3.239V15.278a7.119,7.119,0,0,0-7.064-6.941" transform="translate(-35.768 -2.337)" fill="#0016e6"/>
      <path id="Path_8" data-name="Path 8" d="M43.56,15.477a1.789,1.789,0,1,1-1.789,1.789,1.789,1.789,0,0,1,1.789-1.789" transform="translate(-11.633 -4.31)" fill="#fb7b3c"/>
      <path id="Path_4071" data-name="Path 4071" d="M2.32,0A.432.432,0,0,1,2-.12a.432.432,0,0,1-.12-.32v-13.1A.468.468,0,0,1,2-13.87.415.415,0,0,1,2.32-14h.36a.46.46,0,0,1,.34.12.46.46,0,0,1,.12.34v5.2L9.2-13.7a2.5,2.5,0,0,1,.33-.21A.914.914,0,0,1,9.96-14h.32a.384.384,0,0,1,.28.12.384.384,0,0,1,.12.28.352.352,0,0,1-.1.26L3.8-7.3,11-.68a.384.384,0,0,1,.12.28A.384.384,0,0,1,11-.12a.384.384,0,0,1-.28.12h-.34a.914.914,0,0,1-.43-.09A2.5,2.5,0,0,1,9.62-.3L3.14-6.22V-.44a.415.415,0,0,1-.13.32A.468.468,0,0,1,2.68,0ZM15.8.2a3.978,3.978,0,0,1-3.06-1.25A5.358,5.358,0,0,1,11.42-4.4l-.02-.8.02-.8a5.408,5.408,0,0,1,1.31-3.34A3.955,3.955,0,0,1,15.8-10.6a4.031,4.031,0,0,1,3.25,1.38,5.661,5.661,0,0,1,1.17,3.78v.3a.415.415,0,0,1-.13.32.468.468,0,0,1-.33.12H12.64v.2a4.423,4.423,0,0,0,.43,1.75,3.3,3.3,0,0,0,1.09,1.3,2.787,2.787,0,0,0,1.64.49,3.341,3.341,0,0,0,1.79-.43,3.273,3.273,0,0,0,.99-.87,1.442,1.442,0,0,1,.27-.3.639.639,0,0,1,.33-.06h.32a.453.453,0,0,1,.3.1.322.322,0,0,1,.12.26,1.668,1.668,0,0,1-.53,1.01A4.408,4.408,0,0,1,17.92-.23,5.04,5.04,0,0,1,15.8.2ZM19-5.82V-5.9a3.73,3.73,0,0,0-.87-2.54,2.933,2.933,0,0,0-2.33-1,2.873,2.873,0,0,0-2.31,1,3.785,3.785,0,0,0-.85,2.54v.08ZM23.14,0a.432.432,0,0,1-.32-.12.432.432,0,0,1-.12-.32V-1.4a.468.468,0,0,1,.12-.33.415.415,0,0,1,.32-.13h.96a.447.447,0,0,1,.33.13.447.447,0,0,1,.13.33v.96a.415.415,0,0,1-.13.32A.468.468,0,0,1,24.1,0Z" transform="translate(107.895 19.856)" fill="#fb7b3c"/>
    </g>
  </g>
</svg>
