<svg xmlns="http://www.w3.org/2000/svg" width="50.523" height="51" viewBox="0 0 50.523 51">
  <g id="Layer_2" data-name="Layer 2" transform="translate(0 0)">
    <g id="Layer_1" data-name="Layer 1" transform="translate(0 0)">
      <rect id="Rectangle_30" data-name="Rectangle 30" width="50" height="51" transform="translate(0 0)" fill="none"/>
      <path id="Path_37" data-name="Path 37" d="M49.874,41.472c-1.253-.222-3.8-.909-4.041-1.01a13.649,13.649,0,0,1-7.446-4.455,22.942,22.942,0,0,1-2.546-4.1c-1.384-2.748-2.475-5.657-4.243-8.163s-4.4-4.637-7.466-4.829a23.751,23.751,0,0,0-4.3.384,11.113,11.113,0,0,1-5.688-.687A10.476,10.476,0,0,1,9.616,14.3a18.1,18.1,0,0,1-1.323-2.748c-.212-.525-.4-1.091-.576-1.647-.061-.212-.131-.737-.232-1.162a7.072,7.072,0,0,1-5.415,2.546A7.648,7.648,0,0,1,.19,11.023c.081.182.162.343.172.384.273.667.546,1.334.849,2.021a41.038,41.038,0,0,0,2.021,3.91,17.417,17.417,0,0,0,5.92,6.213h.071a17.781,17.781,0,0,0,8.456,2.1c2.93.081,5.859-.263,8.789-.465a2.738,2.738,0,0,1,1.687.263,2.718,2.718,0,0,1,.818,1.071c2.263,4.334,4.041,9.153,8.143,12.123,3.647,2.6,8.082,3.677,12.5,4.374a.778.778,0,0,0,.9-.677h0a.768.768,0,0,0-.636-.869Z" transform="translate(0.004 0.291)" fill="#000ceb"/>
      <path id="Path_38" data-name="Path 38" d="M7.264,8.189h0S3.708,5.158,0,10.492a6.6,6.6,0,0,0,7.264-2.3Z" transform="translate(0.002 0.277)" fill="#000ceb"/>
    </g>
  </g>
</svg>
