<svg xmlns="http://www.w3.org/2000/svg" width="19.899" height="19.896" viewBox="0 0 19.899 19.896">
  <g id="Layer_2" data-name="Layer 2" transform="translate(0 0)">
    <g id="Layer_1" data-name="Layer 1">
      <path id="Path_119" data-name="Path 119" d="M19.817,9.76a7.084,7.084,0,0,0-4.449-2.053,7.107,7.107,0,0,0,1.7-4.6.267.267,0,0,0-.267-.267,7.107,7.107,0,0,0-4.6,1.7A7.163,7.163,0,0,0,10.139.078a.279.279,0,0,0-.378,0A7.087,7.087,0,0,0,7.7,4.531a7.1,7.1,0,0,0-4.6-1.7.267.267,0,0,0-.267.267,7.107,7.107,0,0,0,1.7,4.6A7.08,7.08,0,0,0,.079,9.764a.259.259,0,0,0,0,.374A7.091,7.091,0,0,0,4.528,12.2a7.115,7.115,0,0,0-1.691,4.6.267.267,0,0,0,.267.267,7.1,7.1,0,0,0,4.6-1.7A7.08,7.08,0,0,0,9.761,19.82a.263.263,0,0,0,.187.08.279.279,0,0,0,.2-.08A7.135,7.135,0,0,0,12.2,15.367a7.107,7.107,0,0,0,4.6,1.7.267.267,0,0,0,.267-.267,7.1,7.1,0,0,0-1.7-4.6,7.091,7.091,0,0,0,4.445-2.057.263.263,0,0,0,0-.378Z" transform="translate(0.001 -0.004)" fill="#20201e"/>
    </g>
  </g>
</svg>
