<svg id="Layer_2" data-name="Layer 2" xmlns="http://www.w3.org/2000/svg" width="14.228" height="13.929" viewBox="0 0 14.228 13.929">
  <g id="Layer_1" data-name="Layer 1" transform="translate(0)">
    <rect id="Rectangle_646" data-name="Rectangle 646" width="14.228" height="13.133" transform="translate(0 0.398)" fill="none"/>
    <path id="Path_143" data-name="Path 143" d="M15.642,4.619h-.081V2.27A2.273,2.273,0,0,0,13.291,0H9.3a2.273,2.273,0,0,0-2.27,2.27V4.619H6.944A.953.953,0,0,0,6,5.572v7.408a.95.95,0,0,0,.944.95h8.7a.95.95,0,0,0,.944-.95V5.572a.953.953,0,0,0-.944-.953Zm-1.44,0H8.385V2.27A.914.914,0,0,1,9.3,1.357h3.995a.914.914,0,0,1,.911.914Z" transform="translate(-4.03)" fill="#fff"/>
  </g>
</svg>
