<svg id="Layer_2" data-name="Layer 2" xmlns="http://www.w3.org/2000/svg" width="39.18" height="36.721" viewBox="0 0 39.18 36.721">
  <g id="Layer_1" data-name="Layer 1" transform="translate(0)">
    <g id="Group_18" data-name="Group 18" transform="translate(10.854 31.378)">
      <path id="Path_15" data-name="Path 15" d="M23,61.49,22.214,62.9h-.24V61.49h-.7v3.383h.7V63.536h.24L23,64.873h.862L22.842,63.22l1.021-1.73Z" transform="translate(-21.27 -61.49)" fill="#f26322"/>
      <path id="Path_16" data-name="Path 16" d="M32.825,62.265v1.965c0,.633.546.709.862.709a10.935,10.935,0,0,0,1.414-.077V64.25H33.846c-.158,0-.316,0-.316-.24v-.388l1.337-.082v-.628l-1.337-.077v-.393c0-.158,0-.24.235-.24h1.26v-.628a12.175,12.175,0,0,0-1.5-.077.714.714,0,0,0-.709.72A.251.251,0,0,0,32.825,62.265Z" transform="translate(-26.926 -61.494)" fill="#f26322"/>
      <path id="Path_17" data-name="Path 17" d="M46.195,63.536,45.016,61.5H44.23v3.383h.786V62.99l1.179,1.888h.786V61.49h-.786Z" transform="translate(-32.514 -61.49)" fill="#f26322"/>
      <path id="Path_18" data-name="Path 18" d="M57.727,63.062l-.51-1.572H56.4l1.021,2.439v.944h.714v-.944l1.123-2.439h-.811Z" transform="translate(-38.473 -61.49)" fill="#f26322"/>
      <path id="Path_19" data-name="Path 19" d="M68.292,61.49l-1.1,3.383h.786l.24-.709h1.021l.235.709h.786L69.134,61.49Zm.077,2.041.316-1.1.316,1.1Z" transform="translate(-43.757 -61.49)" fill="#f26322"/>
    </g>
    <g id="Group_26" data-name="Group 26">
      <g id="Group_25" data-name="Group 25">
        <g id="Group_19" data-name="Group 19">
          <path id="Path_20" data-name="Path 20" d="M23.514,0h.316l.939.709V.786a19.752,19.752,0,0,0-3.062,3.776c-2.99,3.929-6.124,8.573-9.44,13.681C8.415,24.612,6.45,29.725,6.368,33.5l.265,2.827v.24c-.24,0-.316.077-.316.153-.786,0-1.26-1.179-1.414-3.46Q5,27.015,11.226,16.983c2.22-3.613,5.843-8.568,10.716-15.018h-.082A167.017,167.017,0,0,0,4,6.608c-1.72.786-2.664,1.648-2.664,2.577a2.185,2.185,0,0,0,1.337,2.358v.194c0,.082-.077.158-.235.158A2.159,2.159,0,0,1,.316,10.716,7.113,7.113,0,0,1,0,9.185V8.573c0-1.735,3.3-3.3,9.752-4.8L22.177.714Z" transform="translate(0)" fill="#f26322"/>
        </g>
        <g id="Group_20" data-name="Group 20" transform="translate(11.089 18.401)">
          <path id="Path_21" data-name="Path 21" d="M25.271,38.025c.628.24.944.393.944.551A28.852,28.852,0,0,0,24.088,41.8a6.986,6.986,0,0,0-.944,2.6c.709-.158,2.041-1.337,4.169-3.46l.709.235c-2.756,2.832-4.327,4.246-4.715,4.169-1.1-.082-1.577-.393-1.577-.944v-.316a18.08,18.08,0,0,1,1.812-3.934A8.063,8.063,0,0,1,25.271,38.025Zm1.1-1.965.475.316c.393.393.469.628.469.786l-.077.077c-.316.393-.475.633-.628.551l-.24-.158c-.469-.393-.628-.7-.551-.862l.082-.158C26.134,36.218,26.215,36.06,26.369,36.06Z" transform="translate(-21.73 -36.06)" fill="#f26322"/>
        </g>
        <g id="Group_21" data-name="Group 21" transform="translate(13.438 20.371)">
          <path id="Path_22" data-name="Path 22" d="M31.532,39.92c1.1.153,1.653.546,1.577,1.179l-.082.235c-.077.628-.862,1.414-2.281,2.439v.551H30.9a7.542,7.542,0,0,1,2.2-.868c1.255-.551,1.888-.7,1.888-.393q-2.005,1.179-4.241,2.363l-.077.469c-.316,1.965-1.1,3.143-2.439,3.541l-.546.077c-.959-.077-1.429-.367-1.352-.878l.082-.393c.077-.791,1.179-1.893,3.143-3.225a4.021,4.021,0,0,0,0-1.97v-1.4A2.005,2.005,0,0,1,31.3,40Zm-4.164,8.808.077.077c.393.077.944-.469,1.572-1.5l.316-1.021A4.4,4.4,0,0,0,27.368,48.728Zm3.3-6.767-.082.393a2.873,2.873,0,0,0,1.337-1.572l-.077-.311a1.8,1.8,0,0,0-1.179,1.5Z" transform="translate(-26.334 -39.92)" fill="#f26322"/>
        </g>
        <g id="Group_22" data-name="Group 22" transform="translate(19.576 19.034)">
          <path id="Path_23" data-name="Path 23" d="M43.009,37.3h.153c.475.153.709.235.709.393-.393.628-.709,1.337-1.021,1.965l-.709,1.179h.077l1.965-1.648c.393-.311.628-.551.709-.469.628.316.862.469.862.628l-2.9,2.674-1.021,1.1a3.383,3.383,0,0,1,1.1.709,3.623,3.623,0,0,1,.633,1.965v.316c-.082.158-.082.235-.158.235h-.158c-.551-.077-.862-.311-.786-.628-.235-1.337-.628-2.041-1.021-2.123q-.919,1.133-1.73,2.358l-.153.158-.082.077h-.158c-.628,0-1.021-.077-.944-.316v-.235c.475-1.021,1.419-2.75,2.832-5.1q1.419-2.48,1.653-3.062Z" transform="translate(-38.361 -37.3)" fill="#f26322"/>
        </g>
        <g id="Group_23" data-name="Group 23" transform="translate(25.714 21.061)">
          <path id="Path_24" data-name="Path 24" d="M54.641,41.286h.311a1.266,1.266,0,0,1,1.419.944h0a6.353,6.353,0,0,1-1.5,3.383l.077.077c.862,0,2.128-.786,3.776-2.281l.077.393a10.206,10.206,0,0,1-2.434,2.041,2.949,2.949,0,0,1-1.965.393,4.3,4.3,0,0,1-2.439,1.572h-.082c-1.021-.158-1.5-.469-1.5-.862V46.4c0-1.179.944-2.674,2.914-4.4a2.041,2.041,0,0,1,1.337-.709Zm-3.225,5.583V47.1a5.613,5.613,0,0,0,1.806-1.414v-.077c-.628-.235-.944-.475-.944-.709H52.2A3.149,3.149,0,0,0,51.416,46.869Zm1.73-2.434c0,.311.235.546.628.7a5.628,5.628,0,0,0,1.521-3.3,3.378,3.378,0,0,0-1.888,1.73,6.212,6.212,0,0,0-.235.867Z" transform="translate(-50.39 -41.271)" fill="#f26322"/>
        </g>
        <g id="Group_24" data-name="Group 24" transform="translate(30.522 20.371)">
          <path id="Path_25" data-name="Path 25" d="M65.011,39.92c1.1.153,1.648.546,1.572,1.179l-.082.235c-.077.628-.862,1.414-2.281,2.439v.551h.158a7.542,7.542,0,0,1,2.2-.868c1.26-.551,1.888-.7,1.888-.393q-2.005,1.179-4.246,2.363l-.082.469c-.311,1.965-1.1,3.143-2.434,3.541l-.551.077c-.944-.158-1.419-.475-1.337-.862l.077-.393c.077-.786,1.179-1.888,3.143-3.225a4,4,0,0,0,0-1.965V41.65A2.011,2.011,0,0,1,64.776,40Zm-4.184,8.808.077.077c.393.077.944-.469,1.572-1.5l.316-1.021A4.549,4.549,0,0,0,60.827,48.728Zm3.3-6.767v.393a2.893,2.893,0,0,0,1.337-1.572l-.077-.311a1.878,1.878,0,0,0-1.26,1.5Z" transform="translate(-59.812 -39.92)" fill="#f26322"/>
        </g>
      </g>
    </g>
  </g>
</svg>
